HIERARCHY
ROOT Hips
{
	OFFSET 0.000000 0.000000 0.000000
	CHANNELS 6 Xposition Yposition Zposition Zrotation Yrotation Xrotation 
	JOINT LHipJoint
	{
		OFFSET 0.000000 0.000000 0.000000
		CHANNELS 3 Zrotation Yrotation Xrotation
		JOINT LeftUpLeg
		{
			OFFSET 1.363060 -1.794630 0.839290
			CHANNELS 3 Zrotation Yrotation Xrotation
			JOINT LeftLeg
			{
				OFFSET 2.448110 -6.726130 0.000000
				CHANNELS 3 Zrotation Yrotation Xrotation
				JOINT LeftFoot
				{
					OFFSET 2.562200 -7.039590 0.000000
					CHANNELS 3 Zrotation Yrotation Xrotation
					JOINT LeftToeBase
					{
						OFFSET 0.157640 -0.433110 2.322550
						CHANNELS 3 Zrotation Yrotation Xrotation
						End Site
						{
							OFFSET 0.000000 0.000000 0.000000
						}
					}
				}
			}
		}
	}
	JOINT RHipJoint
	{
		OFFSET 0.000000 0.000000 0.000000
		CHANNELS 3 Zrotation Yrotation Xrotation
		JOINT RightUpLeg
		{
			OFFSET -1.305520 -1.794630 0.839290
			CHANNELS 3 Zrotation Yrotation Xrotation
			JOINT RightLeg
			{
				OFFSET -2.542530 -6.985550 0.000000
				CHANNELS 3 Zrotation Yrotation Xrotation
				JOINT RightFoot
				{
					OFFSET -2.568260 -7.056230 0.000000
					CHANNELS 3 Zrotation Yrotation Xrotation
					JOINT RightToeBase
					{
						OFFSET -0.164730 -0.452590 2.363150
						CHANNELS 3 Zrotation Yrotation Xrotation
						End Site
						{
							OFFSET 0.000000 0.000000 0.000000
						}
					}
				}
			}
		}
	}
}
MOTION
Frames: 16
Frame Time: 0.008333
5.182849 17.351719 0.581145 4.284656 -61.640764 3.676686 -10.101625 1.715916 3.055602 -6.339120 -0.849770 -9.820958 -2.699089 -1.169330 -3.769729 -0.610161 -4.632351 7.277418 -0.640200 0.000000 -31.685000 10.286507 -2.057965 -0.753435 5.940672 -14.005361 -2.161483 1.270144 1.365787 -3.444762 -2.849328 -18.460293 -4.371351 -2.983400 0.000000 -26.956500
5.187301 17.351590 0.588781 4.199746 -61.922844 3.741883 -10.135836 1.739837 3.036769 -6.311337 -0.552721 -9.842257 -2.698493 -1.168192 -3.810538 -0.609551 -4.722651 7.241653 -0.663301 0.000000 -31.769800 10.259771 -2.061436 -0.708808 5.979348 -13.908334 -2.147481 1.286128 1.387347 -3.566667 -2.865101 -18.338903 -4.224950 -2.964200 0.000000 -27.083900
5.192004 17.352812 0.597749 4.130402 -62.313952 3.806285 -10.173060 1.765501 3.010470 -6.298699 -0.187862 -9.967962 -2.696555 -1.159656 -3.675580 -0.598551 -4.783899 7.107475 -0.680300 -0.000000 -31.815399 10.230492 -2.066295 -0.641516 6.014437 -13.751849 -2.171858 1.304441 1.410231 -3.685652 -2.870488 -18.178305 -4.056220 -2.949400 0.000000 -27.210100
5.196910 17.355082 0.607780 4.077446 -62.807658 3.866693 -10.213263 1.795254 2.980277 -6.298255 0.237572 -10.103682 -2.695712 -1.152819 -3.553717 -0.585407 -4.812371 6.979365 -0.690000 -0.000000 -31.825600 10.199182 -2.072011 -0.554141 6.044345 -13.536843 -2.231244 1.324571 1.433665 -3.797362 -2.865135 -17.982139 -3.873989 -2.937700 -0.000000 -27.334600
5.201755 17.358007 0.618618 4.043787 -63.396822 3.918996 -10.255279 1.829061 2.947150 -6.308895 0.711625 -10.240697 -2.695892 -1.147947 -3.451422 -0.570736 -4.804746 6.857281 -0.691301 -0.000000 -31.806599 10.166575 -2.078094 -0.449207 6.066883 -13.267294 -2.320718 1.346130 1.457197 -3.897642 -2.848375 -17.752075 -3.686924 -2.927600 0.000000 -27.460900
5.206653 17.361212 0.629986 4.028076 -64.072399 3.958768 -10.298151 1.866412 2.912122 -6.328778 1.219732 -10.370008 -2.696613 -1.145099 -3.374397 -0.554918 -4.756377 6.740992 -0.682800 0.000001 -31.765701 10.133100 -2.083882 -0.330197 6.080367 -12.949957 -2.435106 1.368965 1.480301 -3.982999 -2.819959 -17.489348 -3.502570 -2.917200 0.000000 -27.595000
5.211442 17.364292 0.641632 4.032611 -64.822979 3.982888 -10.340830 1.907026 2.876752 -6.355849 1.746033 -10.483762 -2.697456 -1.144499 -3.327704 -0.538153 -4.662929 6.629713 -0.662900 0.000000 -31.710800 10.099396 -2.089040 -0.200622 6.083464 -12.593824 -2.569511 1.393025 1.502629 -4.051019 -2.779640 -17.194435 -3.327850 -2.904500 0.000000 -27.745100
5.216132 17.366939 0.653356 4.057683 -65.635437 3.987759 -10.382443 1.950362 2.842625 -6.387914 2.274509 -10.575404 -2.697846 -1.146204 -3.314432 -0.520495 -4.521372 6.522581 -0.631000 -0.000000 -31.649100 10.065962 -2.093264 -0.064270 6.075385 -12.209371 -2.719456 1.418345 1.523691 -4.098922 -2.727500 -16.867911 -3.168030 -2.887999 -0.000000 -27.919400
5.220740 17.368901 0.664995 4.101670 -66.495717 3.972255 -10.422286 1.995827 2.811240 -6.422825 2.791239 -10.640564 -2.697207 -1.150220 -3.336596 -0.502118 -4.330660 6.419233 -0.586701 0.000000 -31.586500 10.033247 -2.096307 0.075332 6.056171 -11.807808 -2.881637 1.445060 1.543149 -4.125198 -2.663618 -16.510835 -3.027107 -2.866800 -0.000000 -28.125600
5.225232 17.370003 0.676382 4.164256 -67.389273 3.934981 -10.459761 2.042949 2.783904 -6.458934 3.285460 -10.676802 -2.695149 -1.156499 -3.394250 -0.482472 -4.092638 6.319672 -0.531100 -0.000000 -31.526900 10.001777 -2.098121 0.215112 6.026356 -11.400321 -3.053263 1.473216 1.560657 -4.128371 -2.588536 -16.125013 -2.907250 -2.840400 -0.000001 -28.369200
5.229564 17.370241 0.687461 4.244501 -68.302267 3.876358 -10.494444 2.091354 2.761616 -6.495075 3.749938 -10.684002 -2.691473 -1.164918 -3.486195 -0.461331 -3.812264 6.224470 -0.465600 0.000001 -31.472500 9.971984 -2.098720 0.352620 5.987354 -10.996799 -3.232619 1.502850 1.576002 -4.107455 -2.502890 -15.712992 -2.809581 -2.809000 -0.000001 -28.653200
5.233684 17.369649 0.698193 4.339488 -69.221483 3.798130 -10.526141 2.140634 2.745024 -6.530158 4.180826 -10.664148 -2.686084 -1.175229 -3.609691 -0.438433 -3.496698 6.134694 -0.392700 0.000000 -31.422500 9.944266 -2.098213 0.485624 5.940933 -10.608024 -3.418530 1.534125 1.589096 -4.063429 -2.407727 -15.277008 -2.731728 -2.772900 0.000000 -28.977700
5.237474 17.368349 0.708465 4.450359 -70.139702 3.700090 -10.554911 2.191037 2.733390 -6.565378 4.584519 -10.621643 -2.679619 -1.187127 -3.761036 -0.413426 -3.158478 6.051642 -0.316000 0.000000 -31.375601 9.918797 -2.096335 0.614392 5.888535 -10.232831 -3.611616 1.566237 1.599919 -3.993177 -2.304449 -14.825896 -2.676005 -2.734199 -0.000000 -29.336100
5.240899 17.366583 0.718329 4.571601 -71.046768 3.587627 -10.580891 2.242306 2.727063 -6.599445 4.961099 -10.561304 -2.672103 -1.200229 -3.934561 -0.386073 -2.805645 5.975968 -0.237800 -0.000001 -31.327999 9.895750 -2.093612 0.737438 5.833176 -9.881659 -3.811033 1.599729 1.608754 -3.901443 -2.194479 -14.359743 -2.635366 -2.693000 0.000000 -29.724700
5.243843 17.364526 0.727782 4.701876 -71.938990 3.463005 -10.604463 2.294604 2.724940 -6.632999 5.319550 -10.489605 -2.664189 -1.214125 -4.124267 -0.356635 -2.449696 5.907945 -0.161000 0.000001 -31.276700 9.875024 -2.090136 0.855469 5.777120 -9.553115 -4.017205 1.634190 1.615875 -3.788996 -2.079726 -13.884818 -2.607637 -2.650800 -0.000000 -30.134000
5.246209 17.362435 0.736817 4.838164 -72.813318 3.329951 -10.626047 2.347887 2.726017 -6.665969 5.666301 -10.412178 -2.656226 -1.228309 -4.322100 -0.325202 -2.098531 5.846373 -0.087700 0.000001 -31.217700 9.856501 -2.086289 0.968595 5.722262 -9.248424 -4.229200 1.669588 1.621536 -3.659016 -1.961634 -13.403885 -2.588052 -2.608200 -0.000000 -30.555500
